<svg width="76" height="21" viewBox="0 0 76 21" fill="none" xmlns="http://www.w3.org/2000/svg">
<path d="M17.9883 20.2058H12.5742L6.35352 11.4011L4.34375 13.4656V20.2058H0.201172V0.0534668H4.34375V8.35229L12.123 0.0534668H17.5645L9.30664 8.35229L17.9883 20.2058ZM36.6641 20.2058H32.4531L24.2227 5.89136V20.2058H20.2988V0.0534668H24.7148L32.7402 14.1218V0.0534668H36.6641V20.2058ZM54.8887 3.62183H44.7852V8.25659H53.6309V11.7566H44.7852V20.2058H40.6016V0.0808105H54.8887V3.62183ZM72.3613 0.0534668V3.62183H66.332V20.2058H62.0938V3.62183H56.0371V0.0534668H72.3613ZM71.3359 16.1316H75.4785V20.2058H71.3359V16.1316Z" fill="url(#paint0_linear_0_286)"/>
<defs>
<linearGradient id="paint0_linear_0_286" x1="-27.5188" y1="-5.79418" x2="92.7065" y2="66.0161" gradientUnits="userSpaceOnUse">
<stop stop-color="#DF1CFF"/>
<stop offset="1" stop-color="#EA0070"/>
</linearGradient>
</defs>
</svg>
